# xmcd
#
# Track frame offsets: 
#        150
#        17502
#        36450
#        63917
#        110732
#        129315
#        150640
#        169467
#        182427
#        201877
#        214165
#        226995
#        240942
#        253717
#        266237
#        279800
#        293435
#        305922
#        316507
#        328395
#
# Disc length: 4620 seconds
#
# Revision: 9
# Processed by: cddbd v1.5.2PL0 Copyright (c) Steve Scherf et al.
# Submitted via: ExactAudioCopyFreeDBPlugin 1.0
#
DISCID=1e120a14
DTITLE=Various Artist - Pure Blues
DYEAR=1998
DGENRE=Blues
TTITLE0=Eric Clapton and Duane Allman - Mean Old World
TTITLE1=Johnny Lang - Good Morning Little School Girl
TTITLE2=Kenny Wayne Shepherd - Shame, Shame, Shame
TTITLE3=Stevie Ray Vaughan And Double Trouble - Flood Down in Texas
TTITLE4=Robert Cray - Smoking Gun
TTITLE5=Susan Tedeschi - Just Won't Burn
TTITLE6=Luther Allison - Little Red Rooster
TTITLE7=Buddy Guy - Let Me Love You Baby
TTITLE8=The Allman Brothers Band - Statesboro Blues
TTITLE9=Howlin' Wolf - Spoonful
TTITLE10=Muddy Waters - (I'm Your) Hoochie Coochie Man
TTITLE11=Freddy King - Have You Ever Loved a Woman
TTITLE12=Big Mama Thornton - Hound Dog
TTITLE13=Jimmy Reed - Big Boss Man
TTITLE14=John Lee Hooker - One Bourbon, One Scotch, One Beer
TTITLE15=Koko Taylor - Wang Dang Doodle
TTITLE16=Albert King - Born Under a Bad Sign
TTITLE17=Etta James - Tell Mama
TTITLE18=Bobby "Blue" Bland - Turn On Your Love Light
TTITLE19=B.B. King - The Thrill Is Gone
EXTD=ID3G:   0
EXTT0=
EXTT1=
EXTT2=
EXTT3=
EXTT4=
EXTT5=
EXTT6=
EXTT7=
EXTT8=
EXTT9=
EXTT10=
EXTT11=
EXTT12=
EXTT13=
EXTT14=
EXTT15=
EXTT16=
EXTT17=
EXTT18=
EXTT19=
PLAYORDER=
